<svg
  width="24"
  height="24"
  viewBox="0 0 71 55"
  fill="none"
  xmlns="http://www.w3.org/2000/svg"
  aria-hidden="true"
  focusable="false"
>
  <path
    fill="#5865F2"
    d="M60.104 4.552A58.795 58.795 0 0045.386.5a41.908 41.908 0 00-2.148 4.411 56.872 56.872 0 00-17.973 0 41.436 41.436 0 00-2.148-4.411 58.758 58.758 0 00-14.726 4.054C1.063 20.143-.278 35.051.777 49.717a59.123 59.123 0 0017.3 5.556 43.43 43.43 0 003.939-6.505 37.696 37.696 0 01-6.244-3.018c.524-.384 1.043-.788 1.544-1.22a39.788 39.788 0 0038.204 0c.502.432 1.02.836 1.545 1.22a37.668 37.668 0 01-6.244 3.018 43.353 43.353 0 003.939 6.504 59.11 59.11 0 0017.3-5.556c1.013-16.05-.916-31.2-7.323-45.165zM23.294 37.195c-3.092 0-5.628-2.848-5.628-6.352 0-3.504 2.506-6.352 5.628-6.352 3.136 0 5.655 2.848 5.628 6.352 0 3.504-2.492 6.352-5.628 6.352zm24.407 0c-3.092 0-5.628-2.848-5.628-6.352 0-3.504 2.507-6.352 5.628-6.352 3.136 0 5.655 2.848 5.628 6.352 0 3.504-2.492 6.352-5.628 6.352z"
  />
</svg>
